#!OML:ASF F:\VICON\USERDATA\INSTALL\rory3\rory3.ASF
:FULLY-SPECIFIED
:DEGREES
592
root 2.85118 16.7463 -0.120393 15.3402 4.86939 10.9756
lowerback -6.66982 1.66439 0.784544
upperback -2.41685 2.32677 -7.03269
thorax 1.56381 1.16807 -7.62102
lowerneck -2.82328 14.7985 5.0744
upperneck 48.2507 24.64 -1.24205
head 20.56 10.7233 2.7701
rclavicle 5.76972e-014 4.37326e-015
rhumerus -36.8769 3.95141 -92.7252
rradius 42.643
rwrist -38.7415
rhand -9.56444 -49.5095
rfingers 7.12502
rthumb 16.403 -78.836
lclavicle 5.76972e-014 4.37326e-015
lhumerus -28.1532 -19.7252 82.2972
lradius 41.5357
lwrist 74.0065
lhand -38.8065 -13.8298
lfingers 7.12502
lthumb -11.817 15.8168
rfemur -51.3208 23.8028 -6.32474
rtibia 73.8412
rfoot 3.39547 10.6587
rtoes -42.5695
lfemur -32.8089 -7.01514 -35.7906
ltibia 38.6127
lfoot -16.6676 10.8617
ltoes 6.752
593
root 2.8529 16.7441 -0.119573 15.3492 4.90339 10.9909
lowerback -6.67585 1.61564 0.764624
upperback -2.39343 2.26302 -6.99858
thorax 1.58057 1.13648 -7.57767
lowerneck -2.64239 14.8015 5.07705
upperneck 47.9433 24.6799 -1.49719
head 20.3601 10.7406 2.61518
rclavicle 8.17502e-015 -7.95139e-016
rhumerus -36.826 3.97982 -92.6823
rradius 42.7318
rwrist -38.6668
rhand -9.30616 -49.8829
rfingers 7.12502
rthumb 16.6517 -79.1886
lclavicle 8.17502e-015 -7.95139e-016
lhumerus -28.1 -19.6511 82.2867
lradius 41.461
lwrist 73.955
lhand -38.6029 -13.785
lfingers 7.12502
lthumb -11.6207 15.8728
rfemur -51.2882 23.7562 -6.32755
rtibia 73.8269
rfoot 3.48977 10.5867
rtoes -42.0775
lfemur -32.772 -7.07534 -35.7995
ltibia 38.5665
lfoot -16.6808 10.8609
ltoes 7.56762
594
root 2.85918 16.7504 -0.109145 15.2961 4.94136 10.9771
lowerback -6.78645 1.6066 0.845309
upperback -2.35422 2.25105 -6.99318
thorax 1.68411 1.13321 -7.61731
lowerneck -2.87597 14.8579 4.94446
upperneck 48.1688 24.7508 -1.27451
head 20.5024 10.7446 2.78902
rclavicle -4.67392e-014 -4.37326e-015
rhumerus -36.87 4.00508 -92.6982
rradius 42.7823
rwrist -38.6363
rhand -9.2119 -50.0181
rfingers 7.12502
rthumb 16.7424 -79.3161
lclavicle -4.67392e-014 -4.37326e-015
lhumerus -28.0817 -19.6255 82.2954
lradius 41.4039
lwrist 73.9417
lhand -38.719 -13.6998
lfingers 7.12502
lthumb -11.7327 15.9516
rfemur -51.0723 23.7717 -6.26429
rtibia 73.7573
rfoot 3.4517 10.5557
rtoes -42.0754
lfemur -32.601 -7.10638 -35.8093
ltibia 38.4903
lfoot -16.6911 10.885
ltoes 7.06472
595
root 2.86375 16.7568 -0.101121 15.2346 4.91061 10.9805
lowerback -6.86737 1.6772 0.918089
upperback -2.34651 2.34581 -7.05488
thorax 1.7558 1.18303 -7.71636
lowerneck -2.81159 14.8086 5.01751
upperneck 48.1612 24.6335 -1.22599
head 20.4721 10.7226 2.77093
rclavicle 1.19271e-015 4.25399e-014
rhumerus -36.9759 3.86427 -92.73
rradius 42.7851
rwrist -38.6032
rhand -9.08307 -50.147
rfingers 7.12502
rthumb 16.8665 -79.4346
lclavicle 1.19271e-015 4.25399e-014
lhumerus -28.151 -19.7831 82.3021
lradius 41.4541
lwrist 73.9212
lhand -38.9359 -13.5791
lfingers 7.12502
lthumb -11.9418 16.0603
rfemur -50.9427 23.8465 -6.26999
rtibia 73.6913
rfoot 3.57549 10.5619
rtoes -41.842
lfemur -32.4663 -7.06206 -35.858
ltibia 38.4256
lfoot -16.6304 10.9406
ltoes 6.05188
596
root 2.86452 16.7592 -0.101188 15.2211 4.90948 10.9806
lowerback -6.86943 1.75516 0.959793
upperback -2.36049 2.44904 -7.11375
thorax 1.76126 1.23545 -7.79521
lowerneck -2.75359 14.7453 5.12693
upperneck 48.1963 24.4924 -1.15998
head 20.4766 10.6962 2.75748
rclavicle -1.31695e-014 4.05521e-014
rhumerus -37.0515 3.60342 -92.7095
rradius 42.7915
rwrist -38.4852
rhand -9.05905 -50.1164
rfingers 7.12502
rthumb 16.8896 -79.402
lclavicle -1.31695e-014 4.05521e-014
lhumerus -28.2052 -20.047 82.3199
lradius 41.5059
lwrist 73.9172
lhand -38.931 -13.337
lfingers 7.12502
lthumb -11.9372 16.3026
rfemur -50.944 23.8657 -6.2846
rtibia 73.6574
rfoot 3.72057 10.5749
rtoes -41.4604
lfemur -32.455 -7.0509 -35.8687
ltibia 38.386
lfoot -16.6334 10.9442
ltoes 6.64861
597
root 2.86504 16.7608 -0.10273 15.2317 4.9463 10.9039
lowerback -6.87201 1.78735 1.05138
upperback -2.3737 2.48568 -7.11102
thorax 1.75782 1.25378 -7.84239
lowerneck -2.62431 14.6998 5.26366
upperneck 48.1263 24.4325 -1.26974
head 20.4462 10.6938 2.66206
rclavicle 7.90169e-015 -3.93594e-014
rhumerus -37.0254 3.51159 -92.7043
rradius 42.6825
rwrist -38.4482
rhand -9.18293 -49.4975
rfingers 7.12502
rthumb 16.7703 -78.7932
lclavicle 7.90169e-015 -3.93594e-014
lhumerus -28.125 -20.2009 82.33
lradius 41.3746
lwrist 73.9702
lhand -38.8317 -13.0815
lfingers 7.12502
lthumb -11.8414 16.5637
rfemur -50.9216 23.839 -6.16811
rtibia 73.6321
rfoot 3.4898 10.634
rtoes -42.0036
lfemur -32.5326 -7.10644 -35.7468
ltibia 38.3978
lfoot -16.785 10.7885
ltoes 8.68577
598
root 2.86559 16.7614 -0.103034 15.2332 4.93788 10.8866
lowerback -6.88324 1.81472 1.07541
upperback -2.38452 2.52103 -7.12359
thorax 1.75949 1.27157 -7.86667
lowerneck -2.56539 14.6646 5.34395
upperneck 48.1152 24.3753 -1.30164
head 20.4442 10.6847 2.62078
rclavicle 1.02871e-014 -6.75868e-015
rhumerus -36.983 3.48386 -92.7306
rradius 42.5185
rwrist -38.5116
rhand -8.19571 -51.7376
rfingers 7.12502
rthumb 17.7205 -80.9502
lclavicle 1.02871e-014 -6.75868e-015
lhumerus -28.0612 -20.2955 82.3353
lradius 41.2632
lwrist 74.0331
lhand -38.6721 -13.2599
lfingers 7.12502
lthumb -11.6875 16.3941
rfemur -50.9119 23.8336 -6.13954
rtibia 73.6235
rfoot 3.47367 10.629
rtoes -42.0922
lfemur -32.5777 -7.13945 -35.7029
ltibia 38.4377
lfoot -16.8479 10.7051
ltoes 8.18316
